<svg width="33" height="15" viewBox="0 0 33 15" fill="none" xmlns="http://www.w3.org/2000/svg">
<path d="M31.986 0.25C32.4002 0.25 32.736 0.585786 32.736 1C32.736 1.41421 32.4002 1.75 31.986 1.75V0.25ZM6.51629 14.5303C6.2234 14.8232 5.74853 14.8232 5.45563 14.5303L0.682661 9.75736C0.389769 9.46447 0.389769 8.98959 0.682661 8.6967C0.975554 8.40381 1.45043 8.40381 1.74332 8.6967L5.98596 12.9393L10.2286 8.6967C10.5215 8.40381 10.9964 8.40381 11.2893 8.6967C11.5822 8.98959 11.5822 9.46447 11.2893 9.75736L6.51629 14.5303ZM31.986 1.75H10.986V0.25H31.986V1.75ZM6.73596 6V14H5.23596V6H6.73596ZM10.986 1.75C8.63875 1.75 6.73596 3.65279 6.73596 6H5.23596C5.23596 2.82436 7.81033 0.25 10.986 0.25V1.75Z" fill="url(#paint0_linear)"/>
<defs>
<linearGradient id="paint0_linear" x1="29.0827" y1="7.44628" x2="6.20991" y2="7.2913" gradientUnits="userSpaceOnUse">
<stop stop-color="#ADADFF"/>
<stop offset="1" stop-color="#88B7FF"/>
</linearGradient>
</defs>
</svg>
