<svg width="33" height="15" viewBox="0 0 33 15" fill="none" xmlns="http://www.w3.org/2000/svg">
<path d="M0.985931 0.25C0.571718 0.25 0.235931 0.585786 0.235931 1C0.235931 1.41421 0.571718 1.75 0.985931 1.75V0.25ZM26.4556 14.5303C26.7485 14.8232 27.2234 14.8232 27.5163 14.5303L32.2892 9.75736C32.5821 9.46447 32.5821 8.98959 32.2892 8.6967C31.9963 8.40381 31.5215 8.40381 31.2286 8.6967L26.9859 12.9393L22.7433 8.6967C22.4504 8.40381 21.9755 8.40381 21.6826 8.6967C21.3897 8.98959 21.3897 9.46447 21.6826 9.75736L26.4556 14.5303ZM0.985931 1.75H21.9859V0.25H0.985931V1.75ZM26.2359 6V14H27.7359V6H26.2359ZM21.9859 1.75C24.3331 1.75 26.2359 3.65279 26.2359 6H27.7359C27.7359 2.82436 25.1616 0.25 21.9859 0.25V1.75Z" fill="url(#paint0_linear)"/>
<defs>
<linearGradient id="paint0_linear" x1="3.88916" y1="7.44628" x2="26.762" y2="7.2913" gradientUnits="userSpaceOnUse">
<stop stop-color="#ADADFF"/>
<stop offset="1" stop-color="#88B7FF"/>
</linearGradient>
</defs>
</svg>
