<svg width="272" height="82" viewBox="0 0 272 82" fill="none" xmlns="http://www.w3.org/2000/svg">
<path d="M39.0007 4C31.4364 4.00996 24.0382 6.21949 17.7073 10.3595C11.3764 14.4994 6.38616 20.3912 3.34433 27.3169C8.71171 53.0971 29.0422 73.3465 54.867 78.5925C61.7484 75.5278 67.5949 70.5357 71.7 64.2196C75.8052 57.9035 77.9933 50.5337 78 43.0007C77.9871 39.8311 77.5878 36.6749 76.8111 33.602C73.6323 35.4127 70.0322 36.37 66.3662 36.3793C63.5984 36.3793 60.8577 35.8388 58.3005 34.7885C55.7433 33.7382 53.4199 32.1988 51.4627 30.2581C49.5056 28.3174 47.9531 26.0135 46.894 23.4778C45.8348 20.9422 45.2897 18.2245 45.2898 15.48C45.2955 11.8444 46.2575 8.27307 48.0809 5.11889C45.1085 4.39097 42.0608 4.01543 39.0007 4V4ZM0.292423 38.6377C0.113429 40.0854 0.0158012 41.542 0 43.0007C8.04917e-05 48.1222 1.00893 53.1936 2.96894 57.9253C4.92895 62.657 7.80175 66.9562 11.4233 70.5777C15.0448 74.1991 19.3442 77.0717 24.076 79.0316C28.8077 80.9914 33.8791 82.0001 39.0007 82C40.53 81.9905 42.0575 81.891 43.5751 81.7021C23.5571 74.4536 7.63893 58.6087 0.292423 38.6377Z" fill="#21AFFF" fill-opacity="0.63"/>
<path d="M66.5 31C75.0604 31 82 24.0604 82 15.5C82 6.93959 75.0604 -7.36428e-06 66.5 -7.36428e-06C57.9396 -7.36428e-06 51 6.93959 51 15.5C51 24.0604 57.9396 31 66.5 31Z" fill="url(#paint0_linear)" fill-opacity="0.75"/>
<path d="M104 31C112.837 31 120 24.0604 120 15.5C120 6.93959 112.837 0 104 0C95.1634 0 88 6.93959 88 15.5C88 24.0604 95.1634 31 104 31Z" fill="url(#paint1_linear)" fill-opacity="0.75"/>
<path d="M141 31C149.284 31 156 24.0604 156 15.5C156 6.93959 149.284 0 141 0C132.716 0 126 6.93959 126 15.5C126 24.0604 132.716 31 141 31Z" fill="url(#paint2_linear)" fill-opacity="0.75"/>
<path d="M179.5 31C188.06 31 195 24.0604 195 15.5C195 6.93959 188.06 0 179.5 0C170.94 0 164 6.93959 164 15.5C164 24.0604 170.94 31 179.5 31Z" fill="url(#paint3_linear)" fill-opacity="0.75"/>
<path d="M114.922 46.2147C112.27 43.5853 108.643 42 104.626 42C96.5523 42 90 48.496 90 56.5C90 64.504 96.5523 71 104.626 71C108.682 71 112.348 69.3373 115 66.708L109.54 61.372C108.331 62.6093 106.615 63.3053 104.626 63.3053C100.647 63.3053 97.7613 60.444 97.7613 56.5C97.7613 52.556 100.647 49.6947 104.626 49.6947C106.615 49.6947 108.331 50.3907 109.54 51.5893L114.922 46.2147Z" fill="#3A3A3A"/>
<path d="M121 42V71H128.481V59.9413H137.519V71H145V42H137.519V52.324H128.481V42H121Z" fill="#3A3A3A"/>
<path d="M150 71H158V42H150V71Z" fill="#3A3A3A"/>
<path d="M187.922 46.2147C185.27 43.5853 181.643 42 177.626 42C169.552 42 163 48.496 163 56.5C163 64.504 169.552 71 177.626 71C181.682 71 185.348 69.3373 188 66.708L182.54 61.372C181.331 62.6093 179.615 63.3053 177.626 63.3053C173.647 63.3053 170.761 60.444 170.761 56.5C170.761 52.556 173.647 49.6947 177.626 49.6947C179.615 49.6947 181.331 50.3907 182.54 51.5893L187.922 46.2147Z" fill="#3A3A3A"/>
<path d="M192 56.5387C192 64.5427 198.243 71 205.981 71C213.72 71 220 64.5427 220 56.5387C220 48.5347 213.72 42 205.981 42C198.243 42 192 48.5347 192 56.5387ZM212.673 56.5C212.673 60.2893 209.682 63.4213 205.981 63.4213C202.318 63.4213 199.327 60.2893 199.327 56.5C199.327 52.672 202.318 49.5787 205.981 49.5787C209.682 49.5787 212.673 52.672 212.673 56.5Z" fill="#3A3A3A"/>
<path d="M225 71H235.643C243.568 71 250 64.504 250 56.5C250 48.496 243.568 42 235.643 42H225V71ZM232.504 49.6947H235.681C239.433 49.6947 242.496 52.788 242.496 56.5387C242.496 60.328 239.433 63.4213 235.681 63.4213H232.504V49.6947Z" fill="#3A3A3A"/>
<path d="M254 71H272V64.7747H261.609V59.4387H270.803V53.02H261.609V48.3027H272V42H254V71Z" fill="#3A3A3A"/>
<defs>
<linearGradient id="paint0_linear" x1="66.5" y1="0" x2="66.5" y2="31" gradientUnits="userSpaceOnUse">
<stop stop-color="#FF4466"/>
<stop offset="1" stop-color="#FF855F"/>
</linearGradient>
<linearGradient id="paint1_linear" x1="104" y1="0" x2="104" y2="31" gradientUnits="userSpaceOnUse">
<stop stop-color="#FF4466"/>
<stop offset="1" stop-color="#FF855F"/>
</linearGradient>
<linearGradient id="paint2_linear" x1="141" y1="0" x2="141" y2="31" gradientUnits="userSpaceOnUse">
<stop stop-color="#FF4466"/>
<stop offset="1" stop-color="#FF855F"/>
</linearGradient>
<linearGradient id="paint3_linear" x1="179.5" y1="0" x2="179.5" y2="31" gradientUnits="userSpaceOnUse">
<stop stop-color="#FF4466"/>
<stop offset="1" stop-color="#FF855F"/>
</linearGradient>
</defs>
</svg>
